<?xml version="1.0" standalone="no"?><!DOCTYPE svg PUBLIC "-//W3C//DTD SVG 1.1//EN" "http://www.w3.org/Graphics/SVG/1.1/DTD/svg11.dtd"><svg class="icon" height="512" viewBox="0 0 1024 1024" version="1.1" xmlns="http://www.w3.org/2000/svg"><path d="M622.592 93.696c-119.296 0-216.576 97.28-216.576 216.576s97.28 216.576 216.576 216.576 216.576-97.28 216.576-216.576-97.28-216.576-216.576-216.576z m181.248 216.576c0 99.84-81.408 181.248-181.248 181.248s-181.248-81.408-181.248-181.248 81.408-181.248 181.248-181.248c99.84-0.512 181.248 80.896 181.248 181.248zM390.656 326.656c-1.536-4.608-4.608-8.704-9.216-11.264-4.608-2.56-9.728-3.072-14.336-1.536l-223.232 62.976c-50.176 15.872-77.824 71.168-60.928 122.368l99.84 313.344c12.8 40.448 18.432 58.368 52.736 61.952h2.56c10.24 1.024 24.576-7.168 25.6-17.408 0.512-5.12-1.536-10.24-4.608-13.824-3.072-3.584-12.8-6.144-17.92-6.144-10.752-1.024-10.752-1.024-22.016-35.84l-99.84-313.344c-10.24-31.744 6.144-65.024 36.352-74.752l222.72-62.976c4.608-1.536 8.704-4.608 11.264-9.216 1.536-4.096 2.048-9.216 1.024-14.336z" fill="#231815" /><path d="M351.744 413.184l-148.992 45.056c-4.608 1.536-8.704 5.12-10.752 9.728-2.048 4.608-2.56 9.728-0.512 14.336 2.56 6.656 8.704 11.776 15.872 12.288 3.072 0.512 10.752 0 13.312-1.024l148.992-45.056c9.728-3.584 9.728-14.336 6.144-24.064-3.072-9.728-14.336-14.848-24.064-11.264zM370.176 504.832c-4.608-3.584-9.728-5.12-15.36-4.096-5.632 0.512-10.24 3.584-13.824 7.68l-54.272 70.144-24.576-19.968c-8.704-7.168-22.016-5.632-29.184 3.072-3.584 4.096-5.12 9.728-4.608 15.36 0.512 5.632 3.072 10.752 7.68 13.824l57.344 46.592 80.384-103.936c7.168-8.192 5.632-21.504-3.584-28.672zM944.128 815.104l-0.512-2.56c-1.536-62.976-8.192-135.68-44.032-196.608-49.152-83.456-139.776-124.416-276.992-124.416-120.32 0-205.312 47.104-252.416 140.288-27.648 53.76-41.472 120.832-42.496 205.824 0 4.608 1.536 9.216 5.12 12.8s7.68 5.12 12.8 5.12c9.728 0 17.408-7.68 17.408-17.408 3.584-209.408 88.576-310.784 260.096-310.784 123.904 0 204.8 34.816 246.784 107.008 33.28 56.32 38.912 128.512 39.424 198.656h-455.168c-10.752 0-19.968 8.704-19.968 19.968s8.704 19.968 19.968 19.968h470.528c10.752 0 19.968-8.704 19.968-19.968 0-2.56-0.512-4.608-1.024-6.656 1.024-3.072 1.024-5.632 1.024-8.192v-23.04z" fill="#231815" /></svg>